<svg version="1.1" xmlns="http://www.w3.org/2000/svg" xmlns:xlink="http://www.w3.org/1999/xlink" width="32" height="32" x="0px" y="0px"
	 viewBox="0 0 32 32" enable-background="new 0 0 32 32" xml:space="preserve">
	<g id="MapMarker">
		<path fill="#ED3426" d="M28.5,13.5C28.5,6.6,22.9,1,16,1S3.5,6.6,3.5,13.5C3.5,21.8,16,31,16,31l0,0C16,31,28.5,21.8,28.5,13.5z"/>
		<path fill="#FFFFFF" d="M17.4,17.2c-0.7,1-0.8,1.1-1.6,1.1h-1.7c0.3-0.4,0.6-0.8,0.8-1.2l1-2.5H14l-0.7,1.7
			c-0.2,0.6-0.2,0.8,0.3,0.9c-0.7,1-0.8,1.1-1.6,1.1h-1.7c0.3-0.4,0.6-0.8,0.8-1.2l1.9-4.7c0.2-0.6,0.2-0.8-0.3-0.9
			c0.7-1,0.8-1.1,1.6-1.1h1.7c-0.3,0.4-0.6,0.8-0.8,1.2l-0.8,1.9h1.8l0.5-1.2c0.2-0.6,0.2-0.8-0.3-0.9c0.7-1,0.8-1.1,1.6-1.1h1.7
			c-0.3,0.4-0.6,0.8-0.7,1.2l-1.9,4.7C16.9,16.9,16.9,17.2,17.4,17.2 M23.3,13.6L23.3,13.6c1.5,0.3,2,1.3,1.5,2.6
			c-0.6,1.4-1.9,2.3-3.8,2.3c-0.9,0-1.7-0.2-2.6-0.2c-0.1,0-0.3,0-0.5,0c0.5-0.5,0.8-0.9,1-1.4l1.8-4.7c0.2-0.5,0.2-0.6-0.3-0.7
			c0.5-1,1.3-1.1,3-1.1c2,0,2.8,0.7,2.3,1.9c-0.3,0.9-1.1,1.4-2,1.4C23.5,13.6,23.4,13.6,23.3,13.6 M22,13.8l-1.1,2.8
			c-0.2,0.6-0.2,0.9,0.3,0.9c0.6,0,1.1-0.5,1.5-1.4C23.1,15.1,22.9,14.3,22,13.8 M24,12.2c0.2-0.6,0-1-0.4-1c-0.4,0-0.6,0.2-0.7,0.6
			L22.4,13c0.2,0.1,0.3,0.1,0.5,0.1C23.3,13.1,23.8,12.8,24,12.2 M10.2,15.1c-1.5,0.4-3.5,0.8-3.9,0.1c-0.8-1.4,2.4-4.2,6.8-6.1
			c4.4-1.9,9-2.2,9-0.9c0,0.5-0.4,1-1.2,1.7c0,0,0,0,0,0c1.3-1,2.1-2,1.7-2.6c-0.9-1.5-5.3-1.2-10.2,1c-4.9,2.2-8.4,5.3-7.6,6.8
			C5.5,16.1,7.6,15.9,10.2,15.1"/>
	</g>
</svg>
